<svg width="74" height="22" viewBox="0 0 74 22" fill="none" xmlns="http://www.w3.org/2000/svg">
<g clip-path="url(#clip0_6183_159416)">
<path d="M38.0811 0.568415C37.1706 1.42959 36.4307 2.24976 36.4687 2.39329C36.5066 2.53682 38.3277 6.26858 40.5093 10.677C43.848 17.3819 44.5498 18.6736 44.8723 18.6326C45.1569 18.6121 46.2382 16.6232 49.3682 10.4924C51.6256 6.04304 53.4657 2.33178 53.4467 2.24976C53.4088 2.10623 50.108 -0.989904 49.9942 -0.989904C49.9563 -0.989904 48.856 1.28606 47.5281 4.07463C46.2002 6.88371 45.0431 9.24169 44.9672 9.34421C44.8723 9.44673 43.7152 7.19127 42.3683 4.25917C41.0404 1.36808 39.9022 -0.989904 39.8453 -0.989904C39.7884 -0.989904 38.9917 -0.272257 38.0811 0.568415Z" fill="white"/>
<path d="M0.00830078 -0.641323C0.00830078 -0.538801 0.596367 0.260862 1.33619 1.16305L2.66408 2.80338V10.7385V18.6941H4.84562H7.02715V12.5839L7.04612 6.49414L8.56371 8.23699L10.0813 9.97985L11.5799 8.23699L13.0785 6.49414L13.0975 12.953V19.4323L14.9186 21.1546C15.905 22.1183 16.8915 22.918 17.1002 22.959C17.4606 23.0205 17.4606 22.795 17.4606 13.4246V3.82859L15.5446 1.57313C14.4823 0.322374 13.4769 -0.702835 13.3062 -0.723339C13.1354 -0.743843 12.4146 -0.0261974 11.5989 0.958004C10.8401 1.9217 10.1382 2.70086 10.0623 2.70086C9.96748 2.70086 9.28457 1.9217 8.5068 0.958004L7.122 -0.784853H3.57464C1.60177 -0.784853 0.00830078 -0.723339 0.00830078 -0.641323Z" fill="white"/>
<path d="M27.4389 2.61894L25.0108 6.02264L24.1192 5.07944C23.626 4.56684 23.1897 4.13625 23.1328 4.13625C23.019 4.13625 20.7426 7.21188 20.4201 7.786C20.3063 7.97054 20.5718 8.36012 21.2358 9.01625L22.2222 9.97995L20.3063 12.6045L18.3713 15.2495L19.7561 16.8078C20.5149 17.6895 21.2358 18.5097 21.3686 18.6737C21.5583 18.8993 21.8808 18.5507 23.0759 16.8284C23.9105 15.6596 24.8021 14.4294 25.0867 14.1013L25.5989 13.4657L28.027 16.0697L30.4551 18.6942H32.8833H35.2925V8.95474V-0.784758H32.5987H29.886L27.4389 2.61894ZM30.8345 12.0919C30.7207 12.2149 28.2736 9.67238 28.2736 9.44684C28.2736 9.36482 28.8427 8.52415 29.5636 7.58096L30.8345 5.87911L30.8915 8.93423C30.9104 10.6156 30.8915 12.0304 30.8345 12.0919Z" fill="white"/>
<path d="M54.6416 8.9546V18.6941H56.8231H59.0047V8.9546V-0.784901H56.8231H54.6416V8.9546Z" fill="white"/>
<path d="M63.2729 1.28602C62.6848 2.43426 62.2485 3.45947 62.2864 3.603C62.3433 3.72602 63.8799 6.043 65.72 8.74955L69.0776 13.6706L65.8907 13.7321L62.6848 13.7731L61.4138 16.008C60.7119 17.2383 60.1428 18.3455 60.1428 18.4685C60.1428 18.6326 61.7932 18.6941 65.6441 18.6941H71.1264L72.6629 16.3976C73.7442 14.7368 74.1805 13.8961 74.1805 13.4655C74.1805 12.9734 73.5356 11.9072 71.2402 8.54451L68.2809 4.23863L70.8608 4.17712L73.4217 4.1156V1.6756V-0.784901H68.8879H64.3541L63.2729 1.28602Z" fill="white"/>
</g>
<defs>
<clipPath id="clip0_6183_159416">
<rect width="73.9496" height="24" fill="white" transform="translate(0 -1)"/>
</clipPath>
</defs>
</svg>
